<mxfile host="Electron" agent="Mozilla/5.0 (Windows NT 10.0; Win64; x64) AppleWebKit/537.36 (KHTML, like Gecko) draw.io/26.1.1 Chrome/132.0.6834.210 Electron/34.3.3 Safari/537.36" version="26.1.1">
  <diagram id="C5RBs43oDa-KdzZeNtuy" name="Page-1">
    <mxGraphModel dx="1949" dy="773" grid="1" gridSize="10" guides="1" tooltips="1" connect="1" arrows="1" fold="1" page="1" pageScale="1" pageWidth="827" pageHeight="1169" math="0" shadow="0">
      <root>
        <mxCell id="WIyWlLk6GJQsqaUBKTNV-0" />
        <mxCell id="WIyWlLk6GJQsqaUBKTNV-1" parent="WIyWlLk6GJQsqaUBKTNV-0" />
        <mxCell id="mfAyuJLMvUoI4f2xb2hn-13" value="Компонент бизнес логики" style="html=1;align=center;verticalAlign=middle;dashed=0;whiteSpace=wrap;" parent="WIyWlLk6GJQsqaUBKTNV-1" vertex="1">
          <mxGeometry x="310" y="430" width="200" height="60" as="geometry" />
        </mxCell>
        <mxCell id="mfAyuJLMvUoI4f2xb2hn-20" value="" style="html=1;rounded=0;" parent="WIyWlLk6GJQsqaUBKTNV-1" vertex="1">
          <mxGeometry x="500" y="440" width="20" height="15" as="geometry" />
        </mxCell>
        <mxCell id="mfAyuJLMvUoI4f2xb2hn-21" value="" style="endArrow=none;html=1;rounded=0;align=center;verticalAlign=top;endFill=0;labelBackgroundColor=none;endSize=2;" parent="WIyWlLk6GJQsqaUBKTNV-1" source="mfAyuJLMvUoI4f2xb2hn-20" target="mfAyuJLMvUoI4f2xb2hn-22" edge="1">
          <mxGeometry relative="1" as="geometry" />
        </mxCell>
        <mxCell id="mfAyuJLMvUoI4f2xb2hn-22" value="" style="shape=requiredInterface;html=1;fontSize=11;align=center;fillColor=none;points=[];aspect=fixed;resizable=0;verticalAlign=bottom;labelPosition=center;verticalLabelPosition=top;flipH=1;" parent="WIyWlLk6GJQsqaUBKTNV-1" vertex="1">
          <mxGeometry x="580" y="410" width="5" height="10" as="geometry" />
        </mxCell>
        <mxCell id="mfAyuJLMvUoI4f2xb2hn-23" value="Компонент user-interface" style="html=1;align=center;verticalAlign=middle;dashed=0;whiteSpace=wrap;" parent="WIyWlLk6GJQsqaUBKTNV-1" vertex="1">
          <mxGeometry x="-140" y="373.5" width="180" height="60" as="geometry" />
        </mxCell>
        <mxCell id="mfAyuJLMvUoI4f2xb2hn-24" value="" style="html=1;rounded=0;" parent="WIyWlLk6GJQsqaUBKTNV-1" vertex="1">
          <mxGeometry x="20" y="388.5" width="30" height="30" as="geometry" />
        </mxCell>
        <mxCell id="mfAyuJLMvUoI4f2xb2hn-25" value="" style="endArrow=none;html=1;rounded=0;align=center;verticalAlign=top;endFill=0;labelBackgroundColor=none;endSize=2;" parent="WIyWlLk6GJQsqaUBKTNV-1" source="mfAyuJLMvUoI4f2xb2hn-24" target="mfAyuJLMvUoI4f2xb2hn-26" edge="1">
          <mxGeometry relative="1" as="geometry" />
        </mxCell>
        <mxCell id="mfAyuJLMvUoI4f2xb2hn-26" value="" style="shape=requiredInterface;html=1;fontSize=11;align=center;fillColor=none;points=[];aspect=fixed;resizable=0;verticalAlign=bottom;labelPosition=center;verticalLabelPosition=top;flipH=1;" parent="WIyWlLk6GJQsqaUBKTNV-1" vertex="1">
          <mxGeometry x="77" y="391" width="5" height="10" as="geometry" />
        </mxCell>
        <mxCell id="mfAyuJLMvUoI4f2xb2hn-34" value="" style="html=1;rounded=0;flipH=1;" parent="WIyWlLk6GJQsqaUBKTNV-1" vertex="1">
          <mxGeometry x="300" y="440" width="20" height="15" as="geometry" />
        </mxCell>
        <mxCell id="mfAyuJLMvUoI4f2xb2hn-35" value="" style="endArrow=none;html=1;rounded=0;align=center;verticalAlign=top;endFill=0;labelBackgroundColor=none;endSize=2;" parent="WIyWlLk6GJQsqaUBKTNV-1" source="N4oPQePCGScCSBwTIdiZ-4" target="mfAyuJLMvUoI4f2xb2hn-36" edge="1">
          <mxGeometry relative="1" as="geometry">
            <mxPoint x="120" y="379" as="sourcePoint" />
          </mxGeometry>
        </mxCell>
        <mxCell id="mfAyuJLMvUoI4f2xb2hn-36" value="" style="ellipse;html=1;fontSize=11;align=center;fillColor=none;points=[];aspect=fixed;resizable=0;verticalAlign=bottom;labelPosition=center;verticalLabelPosition=top;flipH=1;" parent="WIyWlLk6GJQsqaUBKTNV-1" vertex="1">
          <mxGeometry x="82" y="391" width="8" height="8" as="geometry" />
        </mxCell>
        <mxCell id="mfAyuJLMvUoI4f2xb2hn-38" value="Компонент доступа к данным" style="html=1;align=center;verticalAlign=middle;dashed=0;whiteSpace=wrap;" parent="WIyWlLk6GJQsqaUBKTNV-1" vertex="1">
          <mxGeometry x="650.01" y="385" width="229.99" height="60" as="geometry" />
        </mxCell>
        <mxCell id="mfAyuJLMvUoI4f2xb2hn-40" value="" style="endArrow=none;html=1;rounded=0;align=center;verticalAlign=top;endFill=0;labelBackgroundColor=none;endSize=2;" parent="WIyWlLk6GJQsqaUBKTNV-1" edge="1">
          <mxGeometry relative="1" as="geometry">
            <mxPoint x="593.0048824543526" y="414.7977274706659" as="targetPoint" />
            <mxPoint x="650" y="400" as="sourcePoint" />
          </mxGeometry>
        </mxCell>
        <mxCell id="mfAyuJLMvUoI4f2xb2hn-41" value="" style="ellipse;html=1;fontSize=11;align=center;fillColor=none;points=[];aspect=fixed;resizable=0;verticalAlign=bottom;labelPosition=center;verticalLabelPosition=top;flipH=1;" parent="WIyWlLk6GJQsqaUBKTNV-1" vertex="1">
          <mxGeometry x="585" y="411" width="8" height="8" as="geometry" />
        </mxCell>
        <mxCell id="mfAyuJLMvUoI4f2xb2hn-42" value="Бизнес логика требует заданный интерфейс доступа к данным, не знает конкретной реализации" style="shape=note2;boundedLbl=1;whiteSpace=wrap;html=1;size=25;verticalAlign=top;align=center;" parent="WIyWlLk6GJQsqaUBKTNV-1" vertex="1">
          <mxGeometry x="480" y="296" width="160" height="100" as="geometry" />
        </mxCell>
        <mxCell id="mfAyuJLMvUoI4f2xb2hn-56" value="" style="html=1;rounded=0;" parent="WIyWlLk6GJQsqaUBKTNV-1" vertex="1">
          <mxGeometry x="500" y="467" width="20" height="15" as="geometry" />
        </mxCell>
        <mxCell id="mfAyuJLMvUoI4f2xb2hn-59" value="Бизнес логика требует заданный интерфейс загрузки расписания, не знает откуда конкретно это расписание загружается" style="shape=note2;boundedLbl=1;whiteSpace=wrap;html=1;size=25;verticalAlign=top;align=center;" parent="WIyWlLk6GJQsqaUBKTNV-1" vertex="1">
          <mxGeometry x="280" y="540" width="160" height="108" as="geometry" />
        </mxCell>
        <mxCell id="mfAyuJLMvUoI4f2xb2hn-60" value="Компонент загрузки расписания" style="html=1;align=center;verticalAlign=middle;dashed=0;whiteSpace=wrap;" parent="WIyWlLk6GJQsqaUBKTNV-1" vertex="1">
          <mxGeometry x="82" y="520" width="180" height="60" as="geometry" />
        </mxCell>
        <mxCell id="mfAyuJLMvUoI4f2xb2hn-61" value="" style="html=1;rounded=0;flipH=0;flipV=1;" parent="WIyWlLk6GJQsqaUBKTNV-1" vertex="1">
          <mxGeometry x="300" y="467" width="20" height="15" as="geometry" />
        </mxCell>
        <mxCell id="mfAyuJLMvUoI4f2xb2hn-62" value="" style="endArrow=none;html=1;rounded=0;align=center;verticalAlign=top;endFill=0;labelBackgroundColor=none;endSize=2;exitX=0.25;exitY=1;exitDx=0;exitDy=0;" parent="WIyWlLk6GJQsqaUBKTNV-1" source="mfAyuJLMvUoI4f2xb2hn-61" target="mfAyuJLMvUoI4f2xb2hn-63" edge="1">
          <mxGeometry relative="1" as="geometry">
            <mxPoint x="382" y="530.4411764705883" as="sourcePoint" />
          </mxGeometry>
        </mxCell>
        <mxCell id="mfAyuJLMvUoI4f2xb2hn-63" value="" style="shape=requiredInterface;html=1;fontSize=11;align=center;fillColor=none;points=[];aspect=fixed;resizable=0;verticalAlign=bottom;labelPosition=center;verticalLabelPosition=top;flipH=0;flipV=1;" parent="WIyWlLk6GJQsqaUBKTNV-1" vertex="1">
          <mxGeometry x="288" y="498" width="5" height="10" as="geometry" />
        </mxCell>
        <mxCell id="mfAyuJLMvUoI4f2xb2hn-64" value="" style="html=1;rounded=0;flipH=1;" parent="WIyWlLk6GJQsqaUBKTNV-1" vertex="1">
          <mxGeometry x="242" y="540" width="30" height="30" as="geometry" />
        </mxCell>
        <mxCell id="mfAyuJLMvUoI4f2xb2hn-65" value="" style="endArrow=none;html=1;rounded=0;align=center;verticalAlign=top;endFill=0;labelBackgroundColor=none;endSize=2;" parent="WIyWlLk6GJQsqaUBKTNV-1" source="mfAyuJLMvUoI4f2xb2hn-64" target="mfAyuJLMvUoI4f2xb2hn-66" edge="1">
          <mxGeometry relative="1" as="geometry" />
        </mxCell>
        <mxCell id="mfAyuJLMvUoI4f2xb2hn-66" value="" style="ellipse;html=1;fontSize=11;align=center;fillColor=none;points=[];aspect=fixed;resizable=0;verticalAlign=bottom;labelPosition=center;verticalLabelPosition=top;flipH=1;" parent="WIyWlLk6GJQsqaUBKTNV-1" vertex="1">
          <mxGeometry x="280" y="500" width="8" height="8" as="geometry" />
        </mxCell>
        <mxCell id="PJkOiyBwchoLqAn2fEJS-0" value="" style="html=1;rounded=0;" parent="WIyWlLk6GJQsqaUBKTNV-1" vertex="1">
          <mxGeometry x="640" y="396" width="20" height="15" as="geometry" />
        </mxCell>
        <mxCell id="N4oPQePCGScCSBwTIdiZ-2" value="API Gateway" style="html=1;align=center;verticalAlign=middle;dashed=0;whiteSpace=wrap;" vertex="1" parent="WIyWlLk6GJQsqaUBKTNV-1">
          <mxGeometry x="120" y="336" width="120" height="60" as="geometry" />
        </mxCell>
        <mxCell id="N4oPQePCGScCSBwTIdiZ-3" value="" style="html=1;rounded=0;flipH=1;" vertex="1" parent="WIyWlLk6GJQsqaUBKTNV-1">
          <mxGeometry x="110" y="346" width="20" height="15" as="geometry" />
        </mxCell>
        <mxCell id="N4oPQePCGScCSBwTIdiZ-4" value="" style="html=1;rounded=0;flipH=1;" vertex="1" parent="WIyWlLk6GJQsqaUBKTNV-1">
          <mxGeometry x="110" y="376" width="20" height="15" as="geometry" />
        </mxCell>
        <mxCell id="N4oPQePCGScCSBwTIdiZ-5" value="" style="html=1;rounded=0;flipH=1;" vertex="1" parent="WIyWlLk6GJQsqaUBKTNV-1">
          <mxGeometry x="222.50000000000003" y="351" width="30" height="30" as="geometry" />
        </mxCell>
        <mxCell id="N4oPQePCGScCSBwTIdiZ-10" value="" style="endArrow=none;html=1;rounded=0;align=center;verticalAlign=top;endFill=0;labelBackgroundColor=none;endSize=2;" edge="1" parent="WIyWlLk6GJQsqaUBKTNV-1" target="N4oPQePCGScCSBwTIdiZ-11" source="mfAyuJLMvUoI4f2xb2hn-34">
          <mxGeometry relative="1" as="geometry">
            <mxPoint x="327.6081081081081" y="430" as="sourcePoint" />
          </mxGeometry>
        </mxCell>
        <mxCell id="N4oPQePCGScCSBwTIdiZ-11" value="" style="shape=requiredInterface;html=1;fontSize=11;align=center;fillColor=none;points=[];aspect=fixed;resizable=0;verticalAlign=bottom;labelPosition=center;verticalLabelPosition=top;flipH=0;flipV=1;" vertex="1" parent="WIyWlLk6GJQsqaUBKTNV-1">
          <mxGeometry x="270.9" y="376" width="5" height="10" as="geometry" />
        </mxCell>
        <mxCell id="N4oPQePCGScCSBwTIdiZ-12" value="" style="endArrow=none;html=1;rounded=0;align=center;verticalAlign=top;endFill=0;labelBackgroundColor=none;endSize=2;" edge="1" parent="WIyWlLk6GJQsqaUBKTNV-1" source="N4oPQePCGScCSBwTIdiZ-13">
          <mxGeometry relative="1" as="geometry">
            <mxPoint x="263.47450680415795" y="341" as="sourcePoint" />
            <mxPoint x="263.3977934544964" y="378.2610037366535" as="targetPoint" />
          </mxGeometry>
        </mxCell>
        <mxCell id="N4oPQePCGScCSBwTIdiZ-14" value="Компонент отправки сообщений (телеграмм бот)" style="html=1;align=center;verticalAlign=middle;dashed=0;whiteSpace=wrap;" vertex="1" parent="WIyWlLk6GJQsqaUBKTNV-1">
          <mxGeometry x="-190" y="301" width="230" height="60" as="geometry" />
        </mxCell>
        <mxCell id="N4oPQePCGScCSBwTIdiZ-15" value="" style="endArrow=none;html=1;rounded=0;align=center;verticalAlign=top;endFill=0;labelBackgroundColor=none;endSize=2;" edge="1" parent="WIyWlLk6GJQsqaUBKTNV-1" source="N4oPQePCGScCSBwTIdiZ-5" target="N4oPQePCGScCSBwTIdiZ-13">
          <mxGeometry relative="1" as="geometry">
            <mxPoint x="252.4" y="373.5" as="sourcePoint" />
            <mxPoint x="263.3977934544964" y="378.2610037366535" as="targetPoint" />
          </mxGeometry>
        </mxCell>
        <mxCell id="N4oPQePCGScCSBwTIdiZ-13" value="" style="ellipse;html=1;fontSize=11;align=center;fillColor=none;points=[];aspect=fixed;resizable=0;verticalAlign=bottom;labelPosition=center;verticalLabelPosition=top;flipH=1;" vertex="1" parent="WIyWlLk6GJQsqaUBKTNV-1">
          <mxGeometry x="263.4" y="376" width="8" height="8" as="geometry" />
        </mxCell>
        <mxCell id="N4oPQePCGScCSBwTIdiZ-16" value="" style="html=1;rounded=0;" vertex="1" parent="WIyWlLk6GJQsqaUBKTNV-1">
          <mxGeometry x="20" y="316" width="30" height="30" as="geometry" />
        </mxCell>
        <mxCell id="N4oPQePCGScCSBwTIdiZ-17" value="" style="endArrow=none;html=1;rounded=0;align=center;verticalAlign=top;endFill=0;labelBackgroundColor=none;endSize=2;" edge="1" parent="WIyWlLk6GJQsqaUBKTNV-1" target="N4oPQePCGScCSBwTIdiZ-18" source="N4oPQePCGScCSBwTIdiZ-16">
          <mxGeometry relative="1" as="geometry">
            <mxPoint x="58" y="250" as="sourcePoint" />
          </mxGeometry>
        </mxCell>
        <mxCell id="N4oPQePCGScCSBwTIdiZ-18" value="" style="shape=requiredInterface;html=1;fontSize=11;align=center;fillColor=none;points=[];aspect=fixed;resizable=0;verticalAlign=bottom;labelPosition=center;verticalLabelPosition=top;flipH=1;" vertex="1" parent="WIyWlLk6GJQsqaUBKTNV-1">
          <mxGeometry x="77" y="329" width="5" height="10" as="geometry" />
        </mxCell>
        <mxCell id="N4oPQePCGScCSBwTIdiZ-19" value="" style="endArrow=none;html=1;rounded=0;align=center;verticalAlign=top;endFill=0;labelBackgroundColor=none;endSize=2;exitX=0.25;exitY=0;exitDx=0;exitDy=0;" edge="1" parent="WIyWlLk6GJQsqaUBKTNV-1" target="N4oPQePCGScCSBwTIdiZ-20" source="N4oPQePCGScCSBwTIdiZ-3">
          <mxGeometry relative="1" as="geometry">
            <mxPoint x="123" y="231" as="sourcePoint" />
          </mxGeometry>
        </mxCell>
        <mxCell id="N4oPQePCGScCSBwTIdiZ-20" value="" style="ellipse;html=1;fontSize=11;align=center;fillColor=none;points=[];aspect=fixed;resizable=0;verticalAlign=bottom;labelPosition=center;verticalLabelPosition=top;flipH=1;" vertex="1" parent="WIyWlLk6GJQsqaUBKTNV-1">
          <mxGeometry x="82" y="331" width="8" height="8" as="geometry" />
        </mxCell>
      </root>
    </mxGraphModel>
  </diagram>
</mxfile>
